<svg xmlns="http://www.w3.org/2000/svg" id="b49f4f68-d79e-4476-a14b-b3f27440c724" data-name="Layer 1" width="480" height="550" viewBox="300 150 480 550">
    <title>Unchain Coffee</title>
    <path d="M802.98,282.5856l-2.75,20.17-17,124.46-27.84,203.82-6.97,51.03a16.25533,16.25533,0,0,1-16.11,14.06H546.66a16.26025,16.26025,0,0,1-16.11-14.02l-7.09-51.07-28.31-203.82-17.3-124.55-2.78-20.04a16.25518,16.25518,0,0,1,16.1-18.5h295.7A16.2658,16.2658,0,0,1,802.98,282.5856Z" transform="translate(-102.4993 -31.62564)" fill="#03bf00" />
    <rect x="392.0007" y="178.5" width="290" height="54" rx="16.26001" fill="#2f2e41" />
    <path d="M784.5,235.6456v12.22a16.26023,16.26023,0,0,1-16.26,16.26H510.76a16.26023,16.26023,0,0,1-16.26-16.26v-12.19A1526.99976,1526.99976,0,0,0,784.5,235.6456Z" transform="translate(-102.4993 -31.62564)" opacity="0.1" />
    <path d="M802.05542,274.62564h.00195c-.00464-.01227-.01062-.02387-.01532-.03608a16.2567,16.2567,0,0,0-1.64135-3.186l-.00171-.00268c-.19605-.29456-.40326-.57953-.61774-.86048-.07153-.094-.14526-.186-.21875-.27844a16.37183,16.37183,0,0,0-2.07257-2.16065c-.16858-.14666-.33856-.29126-.51318-.431-.19611-.15643-.39338-.31012-.59681-.45758-.25433-.18487-.51678-.35864-.78216-.52887-.20935-.13391-.41937-.26538-.63532-.38983q-.50005-.28922-1.02166-.54406c-.166-.08039-.33429-.15522-.50342-.23011q-.49851-.22137-1.01489-.40863c-.13874-.05047-.2746-.10577-.41517-.15252q-.71457-.23841-1.45861-.41089c-.12146-.02808-.24573-.048-.36823-.07337q-.60846-.126-1.2337-.20569c-.15082-.01922-.30091-.03875-.45307-.05377-.53393-.05292-1.07306-.08923-1.62249-.08929l-.00122-.00006H491.17a16.3036,16.3036,0,0,0-16.10113,18.49572l.4696,3.38111L477.85,302.66561l.0028.00025L495.15137,427.2156H495.15l22.70832,163.49011,12.69409,91.39765a16.25911,16.25911,0,0,0,16.10449,14.02228h8.81024a16.24007,16.24007,0,0,1-.91473-3.52228l-8.55109-61.56775H755.39l27.84-203.82H517.69305L500.67133,304.65933A1718.367,1718.367,0,0,0,800.23,302.75564l2.75-20.17A16.13653,16.13653,0,0,0,802.05542,274.62564Z" transform="translate(-102.4993 -31.62564)" opacity="0.1" />
    <path d="M826.241,291.12564a1720.99323,1720.99323,0,0,1-373.48194,0,16.259,16.259,0,0,1-16.259-16.259v-21.482a16.259,16.259,0,0,1,16.259-16.259,1530.24921,1530.24921,0,0,0,373.48194,0,16.259,16.259,0,0,1,16.259,16.259v21.482A16.259,16.259,0,0,1,826.241,291.12564Z" transform="translate(-102.4993 -31.62564)" fill="#2f2e41" />
    <path d="M763.03436,623.62564H513.04926a9.42768,9.42768,0,0,1-9.31112-7.94974L476.73105,445.53128a9.42769,9.42769,0,0,1,9.31113-10.90564H791.84191a9.42769,9.42769,0,0,1,9.2954,11.00151L772.32975,615.77177A9.42769,9.42769,0,0,1,763.03436,623.62564Z" transform="translate(-102.4993 -31.62564)" fill="#af9e41" />
</svg>